<?xml version="1.0" standalone="no"?>
<!DOCTYPE svg PUBLIC "-//W3C//DTD SVG 20010904//EN"
 "http://www.w3.org/TR/2001/REC-SVG-20010904/DTD/svg10.dtd">
<svg version="1.0" xmlns="http://www.w3.org/2000/svg"
 width="16.000000pt" height="16.000000pt" viewBox="0 0 16.000000 16.000000"
 preserveAspectRatio="xMidYMid meet">
<metadata>
Created by potrace 1.11, written by Peter Selinger 2001-2013
</metadata>
<g transform="translate(0.000000,16.000000) scale(0.012214,-0.012214)"
fill="#000000" stroke="none">
<path d="M492 1289 c-137 -35 -275 -127 -356 -238 -20 -27 -36 -51 -36 -55 0
-31 557 129 754 217 90 40 90 42 -31 76 -93 25 -232 26 -331 0z"/>
<path d="M866 1190 c-169 -75 -423 -155 -645 -204 -145 -32 -146 -33 -163 -67
-19 -39 -46 -145 -52 -206 l-4 -43 41 6 c57 9 463 111 485 123 9 5 20 9 25 9
17 1 178 56 255 88 146 60 342 166 342 185 0 21 -160 150 -185 148 -5 0 -50
-18 -99 -39z"/>
<path d="M844 869 c-3 -5 3 -9 14 -9 29 0 110 -77 138 -131 13 -27 27 -49 30
-49 3 0 64 30 136 67 l130 66 -23 18 c-41 31 -144 48 -287 47 -73 0 -135 -5
-138 -9z"/>
<path d="M755 843 c-11 -2 -81 -24 -155 -48 -116 -38 -331 -99 -388 -110 -9
-1 -35 -8 -57 -13 -22 -6 -65 -16 -96 -22 l-56 -11 4 -42 c5 -48 26 -138 42
-181 11 -28 13 -28 69 -23 31 3 64 8 72 11 8 3 32 8 54 11 53 7 217 49 360 91
65 19 122 31 126 27 11 -12 37 -97 59 -193 20 -85 25 -118 37 -240 3 -36 8
-66 9 -68 6 -7 126 47 174 78 43 27 51 37 52 64 1 17 2 51 3 75 2 41 -6 136
-18 221 -8 53 -54 207 -75 248 -47 91 -135 142 -216 125z"/>
<path d="M1159 718 c-68 -34 -125 -63 -127 -64 -2 -1 8 -49 23 -106 19 -74 28
-139 32 -233 3 -72 8 -132 10 -135 6 -7 67 63 104 119 27 42 28 49 22 110 -4
36 -8 86 -8 110 0 41 3 46 45 76 43 31 45 34 46 84 1 60 -5 101 -15 101 -4 0
-63 -28 -132 -62z"/>
<path d="M1268 571 c-34 -19 -36 -31 -23 -111 l11 -65 17 50 c23 69 36 134 28
139 -3 1 -18 -4 -33 -13z"/>
<path d="M587 474 c-60 -19 -118 -36 -130 -38 -12 -3 -58 -14 -102 -25 -71
-18 -112 -26 -235 -46 -19 -3 -36 -8 -38 -10 -7 -7 66 -110 105 -146 l38 -37
115 30 c120 32 154 35 175 18 14 -12 31 -71 40 -145 4 -27 11 -54 15 -59 10
-11 152 -11 199 -1 l34 7 -6 89 c-10 146 -67 390 -93 395 -5 1 -58 -14 -117
-32z"/>
<path d="M360 180 c-58 -16 -107 -29 -110 -29 -10 -2 73 -54 128 -80 56 -28
150 -57 156 -50 6 8 -25 163 -35 176 -14 16 -12 16 -139 -17z"/>
</g>
</svg>
